<svg xmlns="http://www.w3.org/2000/svg" viewBox="0 0 640 400"><defs><linearGradient id="gSky" x1="0" y1="0" x2="0" y2="1"><stop offset="0" stop-color="#5FB0EC"/><stop offset="1" stop-color="#2E89D6"/></linearGradient><linearGradient id="gGrn" x1="0" y1="0" x2="0" y2="1"><stop offset="0" stop-color="#57B183"/><stop offset="1" stop-color="#3E9B6E"/></linearGradient><linearGradient id="gAmb" x1="0" y1="0" x2="0" y2="1"><stop offset="0" stop-color="#EFA94A"/><stop offset="1" stop-color="#DD8A10"/></linearGradient><filter id="sh" x="-20%" y="-20%" width="140%" height="160%"><feDropShadow dx="0" dy="3" stdDeviation="4" flood-color="#14335C" flood-opacity="0.16"/></filter></defs><rect width="640" height="400" rx="14" fill="#F6F9FC"/><rect x="1" y="1" width="638" height="398" rx="13" fill="none" stroke="#D9E2EC" stroke-width="2"/><line x1="40" y1="56" x2="40" y2="372" stroke="#EDF2F8" stroke-width="1"/><line x1="90" y1="56" x2="90" y2="372" stroke="#EDF2F8" stroke-width="1"/><line x1="140" y1="56" x2="140" y2="372" stroke="#EDF2F8" stroke-width="1"/><line x1="190" y1="56" x2="190" y2="372" stroke="#EDF2F8" stroke-width="1"/><line x1="240" y1="56" x2="240" y2="372" stroke="#EDF2F8" stroke-width="1"/><line x1="290" y1="56" x2="290" y2="372" stroke="#EDF2F8" stroke-width="1"/><line x1="340" y1="56" x2="340" y2="372" stroke="#EDF2F8" stroke-width="1"/><line x1="390" y1="56" x2="390" y2="372" stroke="#EDF2F8" stroke-width="1"/><line x1="440" y1="56" x2="440" y2="372" stroke="#EDF2F8" stroke-width="1"/><line x1="490" y1="56" x2="490" y2="372" stroke="#EDF2F8" stroke-width="1"/><line x1="540" y1="56" x2="540" y2="372" stroke="#EDF2F8" stroke-width="1"/><line x1="590" y1="56" x2="590" y2="372" stroke="#EDF2F8" stroke-width="1"/><line x1="640" y1="56" x2="640" y2="372" stroke="#EDF2F8" stroke-width="1"/><line x1="16" y1="80" x2="624" y2="80" stroke="#EDF2F8" stroke-width="1"/><line x1="16" y1="124" x2="624" y2="124" stroke="#EDF2F8" stroke-width="1"/><line x1="16" y1="168" x2="624" y2="168" stroke="#EDF2F8" stroke-width="1"/><line x1="16" y1="212" x2="624" y2="212" stroke="#EDF2F8" stroke-width="1"/><line x1="16" y1="256" x2="624" y2="256" stroke="#EDF2F8" stroke-width="1"/><line x1="16" y1="300" x2="624" y2="300" stroke="#EDF2F8" stroke-width="1"/><line x1="16" y1="344" x2="624" y2="344" stroke="#EDF2F8" stroke-width="1"/><text x="26" y="30" font-size="10" font-weight="700" letter-spacing="2" fill="#2E89D6" font-family="sans-serif">AS-IS</text><text x="26" y="50" font-size="19" font-weight="800" fill="#0F2E54" font-family="sans-serif">현장 수작업 공정</text><text x="614" y="30" font-size="10.5" fill="#8A99AC" text-anchor="end" font-family="sans-serif">작업자 2인 · 토크 렌치 · 대차 반송</text><g filter="url(#sh)"><rect x="60" y="286" width="520" height="14" rx="7" fill="#E2E9F1"/></g><g transform="translate(150,250)" filter="url(#sh)"><path d="M-13 -34 A13 13 0 0 1 13 -34 Z" fill="#E08600"/><circle cy="-27" r="11" fill="#F3D8BE" stroke="#C9A17A" stroke-width="1.2"/><rect x="-14" y="-13" width="28" height="42" rx="11" fill="#4C607E"/><g transform="rotate(38)"><rect x="12" y="-3.5" width="34" height="7" rx="3.5" fill="#5A6B7E"/><rect x="40" y="-7" width="10" height="14" rx="3" fill="#5A6B7E"/></g></g><g transform="translate(236,252)" filter="url(#sh)"><path d="M-13 -34 A13 13 0 0 1 13 -34 Z" fill="#E08600"/><circle cy="-27" r="11" fill="#F3D8BE" stroke="#C9A17A" stroke-width="1.2"/><rect x="-14" y="-13" width="28" height="42" rx="11" fill="#4C607E"/></g><g transform="translate(330,236) scale(1.15)" filter="url(#sh)"><rect x="-24" y="-16" width="48" height="40" fill="url(#gAmb)"/><ellipse cx="0" cy="24" rx="24" ry="9" fill="#C97F0E"/><ellipse cx="0" cy="-16" rx="24" ry="9" fill="#F4C67F" stroke="#C97F0E" stroke-width="1.5"/><ellipse cx="0" cy="-16" rx="13" ry="5" fill="none" stroke="#C97F0E" stroke-width="1.5"/></g><g filter="url(#sh)"><rect x="424" y="238" width="120" height="44" rx="8" fill="#FFFFFF" stroke="#8A99AC" stroke-width="2"/></g><circle cx="448" cy="292" r="9" fill="#5A6B7E"/><circle cx="516" cy="292" r="9" fill="#5A6B7E"/><path d="M544 238 v-20 h20" stroke="#8A99AC" stroke-width="3" fill="none" stroke-linecap="round"/><text x="484" y="266" font-size="11" font-weight="700" text-anchor="middle" fill="#5A6B7E" font-family="sans-serif">대차 반송</text><path d="M372 258 h44 m-8 -7 l8 7 l-8 7" stroke="#8A99AC" stroke-width="2.5" fill="none" stroke-linecap="round" stroke-linejoin="round"/><g filter="url(#sh)"><circle cx="520" cy="130" r="30" fill="#FFFFFF" stroke="#C0392B" stroke-width="2.5"/></g><path d="M520 130 V110 M520 130 L534 140" stroke="#C0392B" stroke-width="2.5" stroke-linecap="round"/><text x="520" y="176" font-size="11.5" font-weight="800" text-anchor="middle" fill="#C0392B" font-family="sans-serif">T/T 18초</text><g filter="url(#sh)"><rect x="96" y="118" width="223" height="24" rx="12" fill="#FFFFFF" stroke="#D9E2EC"/></g><text x="207.5" y="134.5" font-size="11.5" font-weight="700" text-anchor="middle" fill="#C0392B" font-family="sans-serif">토크 렌치 2점 체결 — 편차 산포</text><g filter="url(#sh)"><rect x="96" y="152" width="168" height="24" rx="12" fill="#FFFFFF" stroke="#D9E2EC"/></g><text x="180.0" y="168.5" font-size="11.5" font-weight="700" text-anchor="middle" fill="#5A6B7E" font-family="sans-serif">2인/교대 · 근골격 부하</text><text x="614" y="386" font-size="9.5" fill="#AEBCCB" text-anchor="end" font-family="sans-serif">데모 도식 · 실사진 교체 예정</text></svg>