<svg xmlns="http://www.w3.org/2000/svg" viewBox="0 0 640 400"><defs><linearGradient id="gSky" x1="0" y1="0" x2="0" y2="1"><stop offset="0" stop-color="#5FB0EC"/><stop offset="1" stop-color="#2E89D6"/></linearGradient><linearGradient id="gGrn" x1="0" y1="0" x2="0" y2="1"><stop offset="0" stop-color="#57B183"/><stop offset="1" stop-color="#3E9B6E"/></linearGradient><linearGradient id="gAmb" x1="0" y1="0" x2="0" y2="1"><stop offset="0" stop-color="#EFA94A"/><stop offset="1" stop-color="#DD8A10"/></linearGradient><filter id="sh" x="-20%" y="-20%" width="140%" height="160%"><feDropShadow dx="0" dy="3" stdDeviation="4" flood-color="#14335C" flood-opacity="0.16"/></filter></defs><rect width="640" height="400" rx="14" fill="#F6F9FC"/><rect x="1" y="1" width="638" height="398" rx="13" fill="none" stroke="#D9E2EC" stroke-width="2"/><line x1="40" y1="56" x2="40" y2="372" stroke="#EDF2F8" stroke-width="1"/><line x1="90" y1="56" x2="90" y2="372" stroke="#EDF2F8" stroke-width="1"/><line x1="140" y1="56" x2="140" y2="372" stroke="#EDF2F8" stroke-width="1"/><line x1="190" y1="56" x2="190" y2="372" stroke="#EDF2F8" stroke-width="1"/><line x1="240" y1="56" x2="240" y2="372" stroke="#EDF2F8" stroke-width="1"/><line x1="290" y1="56" x2="290" y2="372" stroke="#EDF2F8" stroke-width="1"/><line x1="340" y1="56" x2="340" y2="372" stroke="#EDF2F8" stroke-width="1"/><line x1="390" y1="56" x2="390" y2="372" stroke="#EDF2F8" stroke-width="1"/><line x1="440" y1="56" x2="440" y2="372" stroke="#EDF2F8" stroke-width="1"/><line x1="490" y1="56" x2="490" y2="372" stroke="#EDF2F8" stroke-width="1"/><line x1="540" y1="56" x2="540" y2="372" stroke="#EDF2F8" stroke-width="1"/><line x1="590" y1="56" x2="590" y2="372" stroke="#EDF2F8" stroke-width="1"/><line x1="640" y1="56" x2="640" y2="372" stroke="#EDF2F8" stroke-width="1"/><line x1="16" y1="80" x2="624" y2="80" stroke="#EDF2F8" stroke-width="1"/><line x1="16" y1="124" x2="624" y2="124" stroke="#EDF2F8" stroke-width="1"/><line x1="16" y1="168" x2="624" y2="168" stroke="#EDF2F8" stroke-width="1"/><line x1="16" y1="212" x2="624" y2="212" stroke="#EDF2F8" stroke-width="1"/><line x1="16" y1="256" x2="624" y2="256" stroke="#EDF2F8" stroke-width="1"/><line x1="16" y1="300" x2="624" y2="300" stroke="#EDF2F8" stroke-width="1"/><line x1="16" y1="344" x2="624" y2="344" stroke="#EDF2F8" stroke-width="1"/><text x="26" y="30" font-size="10" font-weight="700" letter-spacing="2" fill="#2E89D6" font-family="sans-serif">BUILD</text><text x="26" y="50" font-size="19" font-weight="800" fill="#0F2E54" font-family="sans-serif">사외 랩 셀 셋업</text><text x="614" y="30" font-size="10.5" fill="#8A99AC" text-anchor="end" font-family="sans-serif">프레임 · 펜스 · 조명 설치 완료</text><g filter="url(#sh)"><rect x="80" y="110" width="480" height="222" rx="12" fill="#FFFFFF" stroke="#8A99AC" stroke-width="2.5"/></g><line x1="80" y1="150" x2="560" y2="150" stroke="#D9E2EC" stroke-width="2"/><line x1="120" y1="112" x2="120" y2="148" stroke="#D9E2EC" stroke-width="2"/><line x1="160" y1="112" x2="160" y2="148" stroke="#D9E2EC" stroke-width="2"/><line x1="200" y1="112" x2="200" y2="148" stroke="#D9E2EC" stroke-width="2"/><line x1="240" y1="112" x2="240" y2="148" stroke="#D9E2EC" stroke-width="2"/><line x1="280" y1="112" x2="280" y2="148" stroke="#D9E2EC" stroke-width="2"/><line x1="320" y1="112" x2="320" y2="148" stroke="#D9E2EC" stroke-width="2"/><line x1="360" y1="112" x2="360" y2="148" stroke="#D9E2EC" stroke-width="2"/><line x1="400" y1="112" x2="400" y2="148" stroke="#D9E2EC" stroke-width="2"/><line x1="440" y1="112" x2="440" y2="148" stroke="#D9E2EC" stroke-width="2"/><line x1="480" y1="112" x2="480" y2="148" stroke="#D9E2EC" stroke-width="2"/><line x1="520" y1="112" x2="520" y2="148" stroke="#D9E2EC" stroke-width="2"/><line x1="560" y1="112" x2="560" y2="148" stroke="#D9E2EC" stroke-width="2"/><rect x="150" y="128" width="120" height="9" rx="4.5" fill="#F4E9C8" stroke="#E0C86A"/><rect x="370" y="128" width="120" height="9" rx="4.5" fill="#F4E9C8" stroke="#E0C86A"/><text x="320" y="142" font-size="9.5" text-anchor="middle" fill="#B49B37" font-family="sans-serif">비전 조명</text><g transform="translate(240,262) scale(0.92)" filter="url(#sh)"><circle r="30" fill="url(#gSky)"/><circle r="30" fill="none" stroke="#1F6DB4" stroke-width="2"/><circle r="9" fill="#0F2E54"/><g transform="rotate(-32)"><rect x="4" y="-8" width="62" height="16" rx="8" fill="url(#gSky)" stroke="#1F6DB4" stroke-width="1.5"/></g><g transform="rotate(-32) translate(62,0) rotate(52)"><rect x="0" y="-6" width="46" height="12" rx="6" fill="#BFDCF4" stroke="#1F6DB4" stroke-width="1.5"/><circle cx="46" cy="0" r="7" fill="#0F2E54"/></g><circle cx="66" cy="-24" r="6" fill="#0F2E54"/></g><g filter="url(#sh)"><rect x="360" y="248" width="168" height="22" rx="8" fill="url(#gGrn)"/><rect x="360" y="248" width="168" height="22" rx="8" fill="none" stroke="#2F7A55" stroke-width="1.5"/></g><circle cx="378" cy="278" r="5" fill="#BFD0DF"/><circle cx="404" cy="278" r="5" fill="#BFD0DF"/><circle cx="430" cy="278" r="5" fill="#BFD0DF"/><circle cx="456" cy="278" r="5" fill="#BFD0DF"/><circle cx="482" cy="278" r="5" fill="#BFD0DF"/><path d="M494 259 h18 m-6 -6 l7 6 l-7 6" stroke="#fff" stroke-width="3" fill="none" stroke-linecap="round" stroke-linejoin="round"/><text x="444.0" y="300" font-size="11.5" font-weight="700" text-anchor="middle" fill="#2F7A55" font-family="sans-serif">반송부</text><g transform="translate(160,236) scale(0.8)" filter="url(#sh)"><rect x="-24" y="-16" width="48" height="40" fill="url(#gAmb)"/><ellipse cx="0" cy="24" rx="24" ry="9" fill="#C97F0E"/><ellipse cx="0" cy="-16" rx="24" ry="9" fill="#F4C67F" stroke="#C97F0E" stroke-width="1.5"/><ellipse cx="0" cy="-16" rx="13" ry="5" fill="none" stroke="#C97F0E" stroke-width="1.5"/></g><g filter="url(#sh)"><circle cx="524" cy="176" r="34" fill="#3E9B6E"/></g><path d="M508 176 l11 11 l21 -22" stroke="#FFFFFF" stroke-width="5" fill="none" stroke-linecap="round" stroke-linejoin="round"/><text x="524" y="228" font-size="11" font-weight="800" text-anchor="middle" fill="#2F7A55" font-family="sans-serif">설치 완료</text><text x="614" y="386" font-size="9.5" fill="#AEBCCB" text-anchor="end" font-family="sans-serif">데모 도식 · 실사진 교체 예정</text></svg>