<svg xmlns="http://www.w3.org/2000/svg" viewBox="0 0 640 400"><defs><linearGradient id="gSky" x1="0" y1="0" x2="0" y2="1"><stop offset="0" stop-color="#5FB0EC"/><stop offset="1" stop-color="#2E89D6"/></linearGradient><linearGradient id="gGrn" x1="0" y1="0" x2="0" y2="1"><stop offset="0" stop-color="#57B183"/><stop offset="1" stop-color="#3E9B6E"/></linearGradient><linearGradient id="gAmb" x1="0" y1="0" x2="0" y2="1"><stop offset="0" stop-color="#EFA94A"/><stop offset="1" stop-color="#DD8A10"/></linearGradient><filter id="sh" x="-20%" y="-20%" width="140%" height="160%"><feDropShadow dx="0" dy="3" stdDeviation="4" flood-color="#14335C" flood-opacity="0.16"/></filter></defs><rect width="640" height="400" rx="14" fill="#F6F9FC"/><rect x="1" y="1" width="638" height="398" rx="13" fill="none" stroke="#D9E2EC" stroke-width="2"/><line x1="40" y1="56" x2="40" y2="372" stroke="#EDF2F8" stroke-width="1"/><line x1="90" y1="56" x2="90" y2="372" stroke="#EDF2F8" stroke-width="1"/><line x1="140" y1="56" x2="140" y2="372" stroke="#EDF2F8" stroke-width="1"/><line x1="190" y1="56" x2="190" y2="372" stroke="#EDF2F8" stroke-width="1"/><line x1="240" y1="56" x2="240" y2="372" stroke="#EDF2F8" stroke-width="1"/><line x1="290" y1="56" x2="290" y2="372" stroke="#EDF2F8" stroke-width="1"/><line x1="340" y1="56" x2="340" y2="372" stroke="#EDF2F8" stroke-width="1"/><line x1="390" y1="56" x2="390" y2="372" stroke="#EDF2F8" stroke-width="1"/><line x1="440" y1="56" x2="440" y2="372" stroke="#EDF2F8" stroke-width="1"/><line x1="490" y1="56" x2="490" y2="372" stroke="#EDF2F8" stroke-width="1"/><line x1="540" y1="56" x2="540" y2="372" stroke="#EDF2F8" stroke-width="1"/><line x1="590" y1="56" x2="590" y2="372" stroke="#EDF2F8" stroke-width="1"/><line x1="640" y1="56" x2="640" y2="372" stroke="#EDF2F8" stroke-width="1"/><line x1="16" y1="80" x2="624" y2="80" stroke="#EDF2F8" stroke-width="1"/><line x1="16" y1="124" x2="624" y2="124" stroke="#EDF2F8" stroke-width="1"/><line x1="16" y1="168" x2="624" y2="168" stroke="#EDF2F8" stroke-width="1"/><line x1="16" y1="212" x2="624" y2="212" stroke="#EDF2F8" stroke-width="1"/><line x1="16" y1="256" x2="624" y2="256" stroke="#EDF2F8" stroke-width="1"/><line x1="16" y1="300" x2="624" y2="300" stroke="#EDF2F8" stroke-width="1"/><line x1="16" y1="344" x2="624" y2="344" stroke="#EDF2F8" stroke-width="1"/><text x="26" y="30" font-size="10" font-weight="700" letter-spacing="2" fill="#2E89D6" font-family="sans-serif">DESIGN v1</text><text x="26" y="50" font-size="19" font-weight="800" fill="#0F2E54" font-family="sans-serif">그리퍼 핑거 설계</text><text x="614" y="30" font-size="10.5" fill="#8A99AC" text-anchor="end" font-family="sans-serif">림 여유 2mm · 코팅 사양 A</text><g filter="url(#sh)"><path d="M150 120 h150 v34 h-44 v96 h-24 v-96 h-38 v96 h-24 v-96 h-20 Z" fill="url(#gSky)" stroke="#1F6DB4" stroke-width="2"/></g><ellipse cx="225" cy="286" rx="86" ry="30" fill="#F4C67F" stroke="#C97F0E" stroke-width="2"/><ellipse cx="225" cy="286" rx="60" ry="19" fill="none" stroke="#C97F0E" stroke-width="1.5"/><text x="225" y="330" font-size="10.5" font-weight="700" text-anchor="middle" fill="#B36F0A" font-family="sans-serif">드럼 림</text><circle cx="262" cy="262" r="17" fill="none" stroke="#C0392B" stroke-width="2" stroke-dasharray="4 3"/><path d="M276 250 L392 176" stroke="#C0392B" stroke-width="1.5" stroke-dasharray="4 3"/><g filter="url(#sh)"><circle cx="452" cy="176" r="74" fill="#FFFFFF" stroke="#C0392B" stroke-width="2.5"/></g><path d="M420 150 v70 h34" stroke="#1F6DB4" stroke-width="7" fill="none" stroke-linecap="round"/><path d="M436 226 a56 56 0 0 0 60 -14" stroke="#C97F0E" stroke-width="7" fill="none" stroke-linecap="round"/><path d="M446 196 v18 m-5 -5 l5 6 l5 -6 M446 214 m0 0" stroke="#C0392B" stroke-width="2" fill="none"/><text x="474" y="204" font-size="12.5" font-weight="800" fill="#C0392B" font-family="sans-serif">2.0mm</text><text x="452" y="272" font-size="10.5" font-weight="700" text-anchor="middle" fill="#5A6B7E" font-family="sans-serif">접촉부 확대</text><g filter="url(#sh)"><rect x="96" y="340" width="234" height="24" rx="12" fill="#FFFFFF" stroke="#D9E2EC"/></g><text x="213.0" y="356.5" font-size="11.5" font-weight="700" text-anchor="middle" fill="#1F6DB4" font-family="sans-serif">핑거 여유 2mm — 림 변형품 대응</text><text x="614" y="386" font-size="9.5" fill="#AEBCCB" text-anchor="end" font-family="sans-serif">데모 도식 · 실사진 교체 예정</text></svg>