<svg xmlns="http://www.w3.org/2000/svg" viewBox="0 0 640 400"><defs><linearGradient id="gSky" x1="0" y1="0" x2="0" y2="1"><stop offset="0" stop-color="#5FB0EC"/><stop offset="1" stop-color="#2E89D6"/></linearGradient><linearGradient id="gGrn" x1="0" y1="0" x2="0" y2="1"><stop offset="0" stop-color="#57B183"/><stop offset="1" stop-color="#3E9B6E"/></linearGradient><linearGradient id="gAmb" x1="0" y1="0" x2="0" y2="1"><stop offset="0" stop-color="#EFA94A"/><stop offset="1" stop-color="#DD8A10"/></linearGradient><filter id="sh" x="-20%" y="-20%" width="140%" height="160%"><feDropShadow dx="0" dy="3" stdDeviation="4" flood-color="#14335C" flood-opacity="0.16"/></filter></defs><rect width="640" height="400" rx="14" fill="#F6F9FC"/><rect x="1" y="1" width="638" height="398" rx="13" fill="none" stroke="#D9E2EC" stroke-width="2"/><line x1="40" y1="56" x2="40" y2="372" stroke="#EDF2F8" stroke-width="1"/><line x1="90" y1="56" x2="90" y2="372" stroke="#EDF2F8" stroke-width="1"/><line x1="140" y1="56" x2="140" y2="372" stroke="#EDF2F8" stroke-width="1"/><line x1="190" y1="56" x2="190" y2="372" stroke="#EDF2F8" stroke-width="1"/><line x1="240" y1="56" x2="240" y2="372" stroke="#EDF2F8" stroke-width="1"/><line x1="290" y1="56" x2="290" y2="372" stroke="#EDF2F8" stroke-width="1"/><line x1="340" y1="56" x2="340" y2="372" stroke="#EDF2F8" stroke-width="1"/><line x1="390" y1="56" x2="390" y2="372" stroke="#EDF2F8" stroke-width="1"/><line x1="440" y1="56" x2="440" y2="372" stroke="#EDF2F8" stroke-width="1"/><line x1="490" y1="56" x2="490" y2="372" stroke="#EDF2F8" stroke-width="1"/><line x1="540" y1="56" x2="540" y2="372" stroke="#EDF2F8" stroke-width="1"/><line x1="590" y1="56" x2="590" y2="372" stroke="#EDF2F8" stroke-width="1"/><line x1="640" y1="56" x2="640" y2="372" stroke="#EDF2F8" stroke-width="1"/><line x1="16" y1="80" x2="624" y2="80" stroke="#EDF2F8" stroke-width="1"/><line x1="16" y1="124" x2="624" y2="124" stroke="#EDF2F8" stroke-width="1"/><line x1="16" y1="168" x2="624" y2="168" stroke="#EDF2F8" stroke-width="1"/><line x1="16" y1="212" x2="624" y2="212" stroke="#EDF2F8" stroke-width="1"/><line x1="16" y1="256" x2="624" y2="256" stroke="#EDF2F8" stroke-width="1"/><line x1="16" y1="300" x2="624" y2="300" stroke="#EDF2F8" stroke-width="1"/><line x1="16" y1="344" x2="624" y2="344" stroke="#EDF2F8" stroke-width="1"/><text x="26" y="30" font-size="10" font-weight="700" letter-spacing="2" fill="#2E89D6" font-family="sans-serif">TO-BE CONCEPT</text><text x="26" y="50" font-size="19" font-weight="800" fill="#0F2E54" font-family="sans-serif">자동화 셀 레이아웃</text><text x="614" y="30" font-size="10.5" fill="#8A99AC" text-anchor="end" font-family="sans-serif">6축 로봇 + 비전 체결 · 컨베이어 직결</text><rect x="60" y="96" width="300" height="252" rx="14" fill="#FFFFFF" stroke="#8A99AC" stroke-width="2" stroke-dasharray="9 6"/><text x="74" y="118" font-size="10.5" font-weight="700" fill="#8A99AC" font-family="sans-serif">안전 펜스</text><path d="M208 210 L156 158 L260 158 Z" fill="#2E89D6" opacity="0.13"/><g filter="url(#sh)"><rect x="186" y="132" width="44" height="26" rx="7" fill="#0F2E54"/></g><text x="208" y="149" font-size="10" font-weight="700" text-anchor="middle" fill="#9FD0FF" font-family="sans-serif">비전</text><g transform="translate(208,250) scale(1.0)" filter="url(#sh)"><circle r="30" fill="url(#gSky)"/><circle r="30" fill="none" stroke="#1F6DB4" stroke-width="2"/><circle r="9" fill="#0F2E54"/><g transform="rotate(-32)"><rect x="4" y="-8" width="62" height="16" rx="8" fill="url(#gSky)" stroke="#1F6DB4" stroke-width="1.5"/></g><g transform="rotate(-32) translate(62,0) rotate(52)"><rect x="0" y="-6" width="46" height="12" rx="6" fill="#BFDCF4" stroke="#1F6DB4" stroke-width="1.5"/><circle cx="46" cy="0" r="7" fill="#0F2E54"/></g><circle cx="66" cy="-24" r="6" fill="#0F2E54"/></g><g transform="translate(120,216) scale(0.9)" filter="url(#sh)"><rect x="-24" y="-16" width="48" height="40" fill="url(#gAmb)"/><ellipse cx="0" cy="24" rx="24" ry="9" fill="#C97F0E"/><ellipse cx="0" cy="-16" rx="24" ry="9" fill="#F4C67F" stroke="#C97F0E" stroke-width="1.5"/><ellipse cx="0" cy="-16" rx="13" ry="5" fill="none" stroke="#C97F0E" stroke-width="1.5"/></g><g transform="translate(120,300) scale(0.9)" filter="url(#sh)"><rect x="-24" y="-16" width="48" height="40" fill="url(#gAmb)"/><ellipse cx="0" cy="24" rx="24" ry="9" fill="#C97F0E"/><ellipse cx="0" cy="-16" rx="24" ry="9" fill="#F4C67F" stroke="#C97F0E" stroke-width="1.5"/><ellipse cx="0" cy="-16" rx="13" ry="5" fill="none" stroke="#C97F0E" stroke-width="1.5"/></g><text x="120" y="342" font-size="10.5" font-weight="700" text-anchor="middle" fill="#B36F0A" font-family="sans-serif">드럼 대기</text><g filter="url(#sh)"><rect x="380" y="238" width="218" height="22" rx="8" fill="url(#gGrn)"/><rect x="380" y="238" width="218" height="22" rx="8" fill="none" stroke="#2F7A55" stroke-width="1.5"/></g><circle cx="398" cy="268" r="5" fill="#BFD0DF"/><circle cx="424" cy="268" r="5" fill="#BFD0DF"/><circle cx="450" cy="268" r="5" fill="#BFD0DF"/><circle cx="476" cy="268" r="5" fill="#BFD0DF"/><circle cx="502" cy="268" r="5" fill="#BFD0DF"/><circle cx="528" cy="268" r="5" fill="#BFD0DF"/><circle cx="554" cy="268" r="5" fill="#BFD0DF"/><path d="M564 249 h18 m-6 -6 l7 6 l-7 6" stroke="#fff" stroke-width="3" fill="none" stroke-linecap="round" stroke-linejoin="round"/><text x="489.0" y="290" font-size="11.5" font-weight="700" text-anchor="middle" fill="#2F7A55" font-family="sans-serif">반송 컨베이어</text><g filter="url(#sh)"><rect x="470" y="120" width="96" height="58" rx="9" fill="#FFFFFF" stroke="#D9E2EC"/></g><rect x="482" y="132" width="30" height="8" rx="3" fill="#2E89D6"/><rect x="482" y="146" width="52" height="6" rx="3" fill="#C8D6E4"/><rect x="482" y="158" width="40" height="6" rx="3" fill="#C8D6E4"/><text x="518" y="196" font-size="10.5" font-weight="700" text-anchor="middle" fill="#5A6B7E" font-family="sans-serif">제어반 · 레시피</text><path d="M148 250 h26" stroke="#B36F0A" stroke-width="2.5" stroke-dasharray="2 4" stroke-linecap="round"/><path d="M296 262 h74" stroke="#2F7A55" stroke-width="2.5" stroke-dasharray="2 4" stroke-linecap="round"/><g filter="url(#sh)"><rect x="240" y="318" width="135" height="24" rx="12" fill="#FFFFFF" stroke="#D9E2EC"/></g><text x="307.5" y="334.5" font-size="11.5" font-weight="700" text-anchor="middle" fill="#1F6DB4" font-family="sans-serif">비전 가이드 체결 셀</text><text x="614" y="386" font-size="9.5" fill="#AEBCCB" text-anchor="end" font-family="sans-serif">데모 도식 · 실사진 교체 예정</text></svg>